<mxfile host="app.diagrams.net" agent="Mozilla/5.0 (Macintosh; Intel Mac OS X 10_15_7) AppleWebKit/537.36 (KHTML, like Gecko) Chrome/136.0.0.0 Safari/537.36" version="26.0.10">
  <diagram name="Page-1" id="6psDhlHvNx7QmhHNti-R">
    <mxGraphModel dx="1731" dy="464" grid="1" gridSize="10" guides="1" tooltips="1" connect="1" arrows="1" fold="1" page="1" pageScale="1" pageWidth="827" pageHeight="1169" math="0" shadow="0">
      <root>
        <mxCell id="0" />
        <mxCell id="1" parent="0" />
        <mxCell id="3xNAMTjkdr9xtWn26VW8-3" value="Evaluation Server" style="whiteSpace=wrap;html=1;aspect=fixed;" vertex="1" parent="1">
          <mxGeometry x="480" y="190" width="80" height="80" as="geometry" />
        </mxCell>
        <mxCell id="3xNAMTjkdr9xtWn26VW8-4" value="Client - Leetcode Interface" style="whiteSpace=wrap;html=1;aspect=fixed;" vertex="1" parent="1">
          <mxGeometry x="160" y="190" width="80" height="80" as="geometry" />
        </mxCell>
        <mxCell id="3xNAMTjkdr9xtWn26VW8-5" value="Actor" style="shape=umlActor;verticalLabelPosition=bottom;verticalAlign=top;html=1;outlineConnect=0;" vertex="1" parent="1">
          <mxGeometry x="-10" y="210" width="30" height="60" as="geometry" />
        </mxCell>
        <mxCell id="3xNAMTjkdr9xtWn26VW8-6" style="edgeStyle=orthogonalEdgeStyle;rounded=0;orthogonalLoop=1;jettySize=auto;html=1;entryX=0.002;entryY=0.62;entryDx=0;entryDy=0;entryPerimeter=0;" edge="1" parent="1" source="3xNAMTjkdr9xtWn26VW8-5" target="3xNAMTjkdr9xtWn26VW8-4">
          <mxGeometry relative="1" as="geometry" />
        </mxCell>
        <mxCell id="3xNAMTjkdr9xtWn26VW8-7" value="&lt;h1 style=&quot;margin-top: 0px;&quot;&gt;API Interface&lt;/h1&gt;&lt;p&gt;GET /problems&amp;nbsp; =&amp;gt; returns a set of problems&lt;/p&gt;&lt;p&gt;GET /problems/{problem_id}&amp;nbsp; =&amp;gt; returns a problem with a specific problem id&lt;/p&gt;&lt;p&gt;POST /problem/{problem_id} =&amp;gt; request body will have problem solution, compare&lt;/p&gt;&lt;p&gt;&lt;br&gt;&lt;/p&gt;&lt;p&gt;&lt;br&gt;&lt;/p&gt;" style="text;html=1;whiteSpace=wrap;overflow=hidden;rounded=0;" vertex="1" parent="1">
          <mxGeometry x="590" y="150" width="490" height="120" as="geometry" />
        </mxCell>
      </root>
    </mxGraphModel>
  </diagram>
</mxfile>
